<?xml version="1.0"?>
<svg xmlns="http://www.w3.org/2000/svg" viewBox="-70 0 512 512.00102" width="512px" height="512px"><path d="m185.878906 151.191406c4.082032 0 7.96875.726563 11.734375 1.75l124.757813-124.746094-141.425782-28.195312-79.882812 79.863281 73.082031 73.078125c3.761719-1.023437 7.648438-1.75 11.734375-1.75zm0 0" fill="#56a0ee"/><path d="m291.894531 101.066406-69.296875 69.289063c5.160156 7.320312 8.253906 16.195312 8.253906 25.816406 0 4.082031-.722656 7.96875-1.746093 11.734375l114.457031 114.457031 28.191406-141.417969zm0 0" fill="#56a0ee"/><path d="m185.878906 181.175781c-8.273437 0-14.992187 6.722657-14.992187 14.992188 0 8.273437 6.71875 14.992187 14.992187 14.992187 8.269532 0 14.988282-6.71875 14.988282-14.992187 0-8.269531-6.71875-14.992188-14.988282-14.992188zm0 0" fill="#56a0ee"/><path d="m185.878906 241.144531c-9.621094 0-18.496094-3.09375-25.816406-8.253906l-110.671875 110.671875 121.496094 24.21875v144.21875h29.980469v-150.300781l69.824218-69.808594-59-59c-7.320312 5.160156-16.195312 8.253906-25.8125 8.253906zm0 0" fill="#56a0ee"/><path d="m142.652344 207.902344c-1.027344-3.761719-1.75-7.648438-1.75-11.734375 0-9.617188 3.09375-18.488281 8.253906-25.808594l-58.691406-58.679687h.015625l-62.285157-62.289063-28.195312 141.421875 79.863281 79.878906zm0 0" fill="#56a0ee"/></svg>
